<mxfile host="Electron" modified="2023-12-03T18:49:53.068Z" agent="Mozilla/5.0 (X11; Linux x86_64) AppleWebKit/537.36 (KHTML, like Gecko) draw.io/22.1.2 Chrome/114.0.5735.289 Electron/25.9.4 Safari/537.36" etag="iHh5BmpImi4fKOrVhwAw" version="22.1.2" type="device">
  <diagram name="Page-1" id="VN6MoL8Z9Ky6OUScBsNe">
    <mxGraphModel dx="765" dy="838" grid="1" gridSize="10" guides="1" tooltips="1" connect="1" arrows="1" fold="1" page="1" pageScale="1" pageWidth="827" pageHeight="1169" math="0" shadow="0">
      <root>
        <mxCell id="0" />
        <mxCell id="1" parent="0" />
        <mxCell id="2NV5e2R7JPvBfthSzCUG-17" value="return 0" style="ellipse;whiteSpace=wrap;html=1;" vertex="1" parent="1">
          <mxGeometry x="440" y="270" width="80" height="80" as="geometry" />
        </mxCell>
        <mxCell id="2NV5e2R7JPvBfthSzCUG-38" style="edgeStyle=orthogonalEdgeStyle;rounded=0;orthogonalLoop=1;jettySize=auto;html=1;entryX=0.5;entryY=0;entryDx=0;entryDy=0;" edge="1" parent="1" source="2NV5e2R7JPvBfthSzCUG-22" target="2NV5e2R7JPvBfthSzCUG-25">
          <mxGeometry relative="1" as="geometry" />
        </mxCell>
        <mxCell id="2NV5e2R7JPvBfthSzCUG-22" value="start" style="ellipse;whiteSpace=wrap;html=1;" vertex="1" parent="1">
          <mxGeometry x="220" y="50" width="80" height="80" as="geometry" />
        </mxCell>
        <mxCell id="2NV5e2R7JPvBfthSzCUG-34" style="edgeStyle=orthogonalEdgeStyle;rounded=0;orthogonalLoop=1;jettySize=auto;html=1;" edge="1" parent="1" source="2NV5e2R7JPvBfthSzCUG-25" target="2NV5e2R7JPvBfthSzCUG-17">
          <mxGeometry relative="1" as="geometry">
            <Array as="points">
              <mxPoint x="480" y="250" />
            </Array>
          </mxGeometry>
        </mxCell>
        <mxCell id="2NV5e2R7JPvBfthSzCUG-35" value="False" style="edgeLabel;html=1;align=center;verticalAlign=middle;resizable=0;points=[];" vertex="1" connectable="0" parent="2NV5e2R7JPvBfthSzCUG-34">
          <mxGeometry x="0.1636" y="-2" relative="1" as="geometry">
            <mxPoint x="-43" y="-2" as="offset" />
          </mxGeometry>
        </mxCell>
        <mxCell id="2NV5e2R7JPvBfthSzCUG-36" style="edgeStyle=orthogonalEdgeStyle;rounded=0;orthogonalLoop=1;jettySize=auto;html=1;" edge="1" parent="1" source="2NV5e2R7JPvBfthSzCUG-25" target="2NV5e2R7JPvBfthSzCUG-26">
          <mxGeometry relative="1" as="geometry" />
        </mxCell>
        <mxCell id="2NV5e2R7JPvBfthSzCUG-37" value="True" style="edgeLabel;html=1;align=center;verticalAlign=middle;resizable=0;points=[];" vertex="1" connectable="0" parent="2NV5e2R7JPvBfthSzCUG-36">
          <mxGeometry x="-0.0857" y="4" relative="1" as="geometry">
            <mxPoint as="offset" />
          </mxGeometry>
        </mxCell>
        <mxCell id="2NV5e2R7JPvBfthSzCUG-25" value="if i &amp;lt; currencies.size()" style="rhombus;whiteSpace=wrap;html=1;" vertex="1" parent="1">
          <mxGeometry x="180" y="210" width="160" height="80" as="geometry" />
        </mxCell>
        <mxCell id="2NV5e2R7JPvBfthSzCUG-30" style="edgeStyle=orthogonalEdgeStyle;rounded=0;orthogonalLoop=1;jettySize=auto;html=1;" edge="1" parent="1" source="2NV5e2R7JPvBfthSzCUG-26" target="2NV5e2R7JPvBfthSzCUG-27">
          <mxGeometry relative="1" as="geometry" />
        </mxCell>
        <mxCell id="2NV5e2R7JPvBfthSzCUG-31" value="True" style="edgeLabel;html=1;align=center;verticalAlign=middle;resizable=0;points=[];" vertex="1" connectable="0" parent="2NV5e2R7JPvBfthSzCUG-30">
          <mxGeometry x="-0.1714" y="6" relative="1" as="geometry">
            <mxPoint as="offset" />
          </mxGeometry>
        </mxCell>
        <mxCell id="2NV5e2R7JPvBfthSzCUG-32" style="edgeStyle=orthogonalEdgeStyle;rounded=0;orthogonalLoop=1;jettySize=auto;html=1;entryX=0;entryY=0.5;entryDx=0;entryDy=0;" edge="1" parent="1" source="2NV5e2R7JPvBfthSzCUG-26" target="2NV5e2R7JPvBfthSzCUG-25">
          <mxGeometry relative="1" as="geometry">
            <Array as="points">
              <mxPoint x="130" y="400" />
              <mxPoint x="130" y="250" />
            </Array>
          </mxGeometry>
        </mxCell>
        <mxCell id="2NV5e2R7JPvBfthSzCUG-33" value="False" style="edgeLabel;html=1;align=center;verticalAlign=middle;resizable=0;points=[];" vertex="1" connectable="0" parent="2NV5e2R7JPvBfthSzCUG-32">
          <mxGeometry x="0.2205" y="4" relative="1" as="geometry">
            <mxPoint as="offset" />
          </mxGeometry>
        </mxCell>
        <mxCell id="2NV5e2R7JPvBfthSzCUG-26" value="if currency.getName() == currency2" style="rhombus;whiteSpace=wrap;html=1;" vertex="1" parent="1">
          <mxGeometry x="175" y="360" width="170" height="80" as="geometry" />
        </mxCell>
        <mxCell id="2NV5e2R7JPvBfthSzCUG-29" style="edgeStyle=orthogonalEdgeStyle;rounded=0;orthogonalLoop=1;jettySize=auto;html=1;" edge="1" parent="1" source="2NV5e2R7JPvBfthSzCUG-27" target="2NV5e2R7JPvBfthSzCUG-28">
          <mxGeometry relative="1" as="geometry" />
        </mxCell>
        <mxCell id="2NV5e2R7JPvBfthSzCUG-27" value="shortNameCurrency = getShortName()" style="whiteSpace=wrap;html=1;" vertex="1" parent="1">
          <mxGeometry x="170" y="510" width="180" height="60" as="geometry" />
        </mxCell>
        <mxCell id="2NV5e2R7JPvBfthSzCUG-54" style="edgeStyle=orthogonalEdgeStyle;rounded=0;orthogonalLoop=1;jettySize=auto;html=1;" edge="1" parent="1" source="2NV5e2R7JPvBfthSzCUG-28" target="2NV5e2R7JPvBfthSzCUG-17">
          <mxGeometry relative="1" as="geometry" />
        </mxCell>
        <mxCell id="2NV5e2R7JPvBfthSzCUG-55" value="False" style="edgeLabel;html=1;align=center;verticalAlign=middle;resizable=0;points=[];" vertex="1" connectable="0" parent="2NV5e2R7JPvBfthSzCUG-54">
          <mxGeometry x="-0.5811" relative="1" as="geometry">
            <mxPoint x="-21" as="offset" />
          </mxGeometry>
        </mxCell>
        <mxCell id="2NV5e2R7JPvBfthSzCUG-57" value="" style="edgeStyle=orthogonalEdgeStyle;rounded=0;orthogonalLoop=1;jettySize=auto;html=1;" edge="1" parent="1" source="2NV5e2R7JPvBfthSzCUG-28" target="2NV5e2R7JPvBfthSzCUG-45">
          <mxGeometry relative="1" as="geometry">
            <Array as="points">
              <mxPoint x="260" y="720" />
              <mxPoint x="260" y="720" />
            </Array>
          </mxGeometry>
        </mxCell>
        <mxCell id="2NV5e2R7JPvBfthSzCUG-58" value="True" style="edgeLabel;html=1;align=center;verticalAlign=middle;resizable=0;points=[];" vertex="1" connectable="0" parent="2NV5e2R7JPvBfthSzCUG-57">
          <mxGeometry x="0.16" y="7" relative="1" as="geometry">
            <mxPoint y="-9" as="offset" />
          </mxGeometry>
        </mxCell>
        <mxCell id="2NV5e2R7JPvBfthSzCUG-28" value="if i &amp;lt; currencies.size()" style="rhombus;whiteSpace=wrap;html=1;direction=south;" vertex="1" parent="1">
          <mxGeometry x="190" y="620" width="140" height="80" as="geometry" />
        </mxCell>
        <mxCell id="2NV5e2R7JPvBfthSzCUG-41" value="Return price" style="ellipse;whiteSpace=wrap;html=1;" vertex="1" parent="1">
          <mxGeometry x="210" y="960" width="100" height="80" as="geometry" />
        </mxCell>
        <mxCell id="2NV5e2R7JPvBfthSzCUG-59" value="" style="edgeStyle=orthogonalEdgeStyle;rounded=0;orthogonalLoop=1;jettySize=auto;html=1;" edge="1" parent="1" source="2NV5e2R7JPvBfthSzCUG-45" target="2NV5e2R7JPvBfthSzCUG-47">
          <mxGeometry relative="1" as="geometry" />
        </mxCell>
        <mxCell id="2NV5e2R7JPvBfthSzCUG-61" style="edgeStyle=orthogonalEdgeStyle;rounded=0;orthogonalLoop=1;jettySize=auto;html=1;entryX=0.5;entryY=1;entryDx=0;entryDy=0;" edge="1" parent="1" source="2NV5e2R7JPvBfthSzCUG-45" target="2NV5e2R7JPvBfthSzCUG-28">
          <mxGeometry relative="1" as="geometry">
            <Array as="points">
              <mxPoint x="150" y="790" />
              <mxPoint x="150" y="660" />
            </Array>
          </mxGeometry>
        </mxCell>
        <mxCell id="2NV5e2R7JPvBfthSzCUG-62" value="False" style="edgeLabel;html=1;align=center;verticalAlign=middle;resizable=0;points=[];" vertex="1" connectable="0" parent="2NV5e2R7JPvBfthSzCUG-61">
          <mxGeometry x="0.1263" y="-2" relative="1" as="geometry">
            <mxPoint as="offset" />
          </mxGeometry>
        </mxCell>
        <mxCell id="2NV5e2R7JPvBfthSzCUG-45" value="if currency.getName() == currency1" style="rhombus;whiteSpace=wrap;html=1;direction=south;" vertex="1" parent="1">
          <mxGeometry x="170" y="750" width="180" height="80" as="geometry" />
        </mxCell>
        <mxCell id="2NV5e2R7JPvBfthSzCUG-60" value="" style="edgeStyle=orthogonalEdgeStyle;rounded=0;orthogonalLoop=1;jettySize=auto;html=1;" edge="1" parent="1" source="2NV5e2R7JPvBfthSzCUG-47" target="2NV5e2R7JPvBfthSzCUG-41">
          <mxGeometry relative="1" as="geometry" />
        </mxCell>
        <mxCell id="2NV5e2R7JPvBfthSzCUG-47" value="price = exchangeValue * amount" style="whiteSpace=wrap;html=1;" vertex="1" parent="1">
          <mxGeometry x="200" y="860" width="120" height="60" as="geometry" />
        </mxCell>
      </root>
    </mxGraphModel>
  </diagram>
</mxfile>
